<?xml version="1.0" encoding="UTF-8"?>
<svg width="160px" height="130px" viewBox="0 0 160 130" version="1.1" xmlns="http://www.w3.org/2000/svg" xmlns:xlink="http://www.w3.org/1999/xlink">
    <!-- Generator: Sketch 57 (83077) - https://sketch.com -->
    <title>tips-noComment</title>
    <desc>Created with Sketch.</desc>
    <g id="页面-1" stroke="none" stroke-width="1" fill="none" fill-rule="evenodd">
        <g id="tips-noComment" fill="#000000" fill-rule="nonzero">
            <path d="M117.167379,130 L90.6563107,130 C89.8441482,130 89.1857605,129.340443 89.1857605,128.526839 C89.1857605,127.713235 89.8441482,127.053678 90.6563107,127.053678 L117.167379,127.053678 C117.979541,127.053678 118.637929,127.713235 118.637929,128.526839 C118.637929,129.340443 117.979541,130 117.167379,130 L117.167379,130 Z M75.1011003,129.772023 L1.47055013,129.772023 C0.659743329,129.768754 0.00326344465,129.111109 0,128.298862 C0.00284059241,127.48644 0.659567245,126.828547 1.47055013,126.825702 L75.0809061,126.825702 C75.891889,126.828547 76.5486157,127.48644 76.551499,128.298862 C76.554419,128.686972 76.403211,129.060333 76.1311553,129.336667 C75.8590995,129.613 75.4885256,129.769625 75.1011003,129.772023 L75.1011003,129.772023 Z M158.52945,130 L130.465243,130 C129.65308,130 128.994692,129.340443 128.994692,128.526839 C128.994692,127.713235 129.65308,127.053678 130.465243,127.053678 L158.52945,127.053678 C159.341612,127.053678 160,127.713235 160,128.526839 C160,129.340443 159.341612,130 158.52945,130 Z M50.7029126,118.443226 L27.961165,118.443226 C27.1503582,118.43994 26.4938784,117.782295 26.4906149,116.970048 C26.4935974,116.157727 27.1502827,115.499992 27.961165,115.497147 L50.7029126,115.497147 C51.5137949,115.499992 52.1704803,116.157727 52.1734796,116.970048 C52.1753328,117.361326 52.0210008,117.73712 51.7448128,118.013798 C51.4686247,118.290477 51.093497,118.445083 50.7029126,118.443226 L50.7029126,118.443226 Z M69.1575404,106.014223 C68.5522027,106.016313 67.9628713,105.81952 67.4798705,105.453977 C66.5455798,104.744978 66.1492209,103.529181 66.4856958,102.404431 C67.1065372,100.288059 67.33411,99.3336165 67.4381877,98.9183823 C67.7583191,97.2294734 67.8210814,95.501713 67.6243365,93.7939614 L52.6081553,93.7939614 C49.6234044,93.7913866 47.2045875,91.3678113 47.2025889,88.3777613 L47.2025889,48.4162001 C47.2045875,45.4261501 49.6234044,43.0025748 52.6081553,43 L107.743689,43 C110.72844,43.0025749 113.147257,45.4261501 113.149256,48.4162001 L113.149256,88.3575313 C113.147114,91.3473538 110.728213,93.7705482 107.743689,93.7726939 L81.8951456,93.7726939 C80.818123,95.7025864 78.0429773,100.371054 75.5370874,102.238181 C74.0867314,103.317375 72.4302913,104.437807 70.6482848,105.55824 C70.2088349,105.857756 69.6890498,106.016736 69.1575404,106.014223 Z M52.6081553,45.9470865 C51.9539238,45.9452325 51.3259544,46.2047778 50.8633653,46.6682369 C50.4007761,47.1316959 50.1417567,47.7608074 50.1436786,48.4162001 L50.1436786,88.3575313 C50.1419645,89.0128368 50.401059,89.6418006 50.8636104,90.1051732 C51.3261619,90.5685458 51.9540111,90.8281002 52.6081553,90.8263723 L70.0476376,90.8263723 L70.2964401,91.9885614 C70.7706639,94.4765986 70.7706639,97.0320586 70.2964401,99.5200958 C70.1517152,100.163307 69.8614887,101.283998 69.4053074,102.840154 C71.0001294,101.822947 72.4717152,100.827007 73.7763107,99.8523351 C75.8677022,98.2961794 78.7671197,93.3572003 79.7209061,91.5943352 L80.1346278,90.8051049 L107.763883,90.8051049 C108.418294,90.8073177 109.046557,90.5479606 109.50942,90.0845201 C109.972282,89.6210796 110.231509,88.9918371 110.229654,88.3362638 L110.229654,48.4162001 C110.231509,47.7606031 109.97229,47.1313342 109.509435,46.6678526 C109.04658,46.204371 108.418318,45.9449561 107.763883,45.9470865 L52.6081553,45.9470865 Z" id="形状"></path>
            <path d="M116.610178,87 L112.506209,87 C111.975807,87.0069429 111.482657,86.7265981 111.215404,86.2660764 C110.94815,85.8055546 110.94815,85.2361186 111.215404,84.7755968 C111.482657,84.3150751 111.975807,84.0347303 112.506209,84.041804 L116.610178,84.041804 C117.265133,84.0436797 117.893786,83.7829424 118.356814,83.317377 C118.819841,82.8518115 119.079002,82.2198693 119.076861,81.561602 L119.076861,41.4372256 C119.078935,40.7790986 118.81971,40.1473295 118.35666,39.6819855 C117.893609,39.2166415 117.264993,38.9561724 116.610178,38.9583258 L61.4106375,38.9583258 C60.7558679,38.9562419 60.127318,39.2167417 59.6643236,39.6820781 C59.2013293,40.1474145 58.9421405,40.7791439 58.9442139,41.4372256 L58.9442139,44.2499789 C58.9442139,45.0671137 58.2851291,45.7295324 57.4721069,45.7295324 C56.6590847,45.7295324 56,45.0671137 56,44.2499789 L56,41.4372256 C56.0025722,38.4350953 58.4236165,36.0021538 61.4106375,36 L116.588931,36 C119.576172,36.0017234 121.997541,38.4348747 122,41.4372256 L122,81.5412895 C122.011297,82.985276 121.448478,84.3740616 120.436432,85.3990513 C119.424386,86.424041 118.046943,87 116.610178,87 L116.610178,87 Z" id="路径"></path>
            <path d="M99.5242156,60.8874651 L61.4959152,60.8874651 C60.680862,60.8874651 60.0201308,60.241084 60.0201308,59.4437325 C60.0201308,58.6463811 60.680862,58 61.4959152,58 L99.5242156,58 C100.339269,58 101,58.6463811 101,59.4437325 C101,60.241084 100.339269,60.8874651 99.5242156,60.8874651 L99.5242156,60.8874651 Z M89.632317,70.3195629 L61.4753948,70.3195629 C60.6605568,70.3195629 60.0000001,69.6733525 60.0000001,68.8762116 C60.0000001,68.0790707 60.6605568,67.4328602 61.4753948,67.4328602 L89.632317,67.4328602 C90.445795,67.4360633 91.1044376,68.0804011 91.1078626,68.8762116 C91.1133674,69.2606816 90.9597413,69.6310271 90.6818156,69.9029166 C90.40389,70.1748061 90.0253225,70.3250957 89.632317,70.3195629 L89.632317,70.3195629 Z M79.7617182,79 L61.4753948,79 C60.6605567,79 60,78.3537896 60,77.5566486 C60,76.7595077 60.6605567,76.1132973 61.4753948,76.1132973 L79.7617182,76.1132973 C80.5765562,76.1132973 81.237113,76.7595077 81.237113,77.5566486 C81.237113,78.3537896 80.5765562,79 79.7617182,79 L79.7617182,79 Z" id="形状"></path>
            <path d="M29.0175781,21.0751953 L37.8708984,21.0751953 C38.4873047,21.0751953 38.9888672,20.5726563 38.9888672,19.95625 C38.9888672,19.3398437 38.4876953,18.8363281 37.8708984,18.8363281 L29.0175781,18.8363281 C26.3541016,18.8363281 24.1898438,16.6708984 24.1898438,14.0085937 C24.1898438,11.3462891 26.35625,9.18085938 29.0175781,9.18085938 C29.4037109,9.18085938 29.7939453,9.22363281 30.1333984,9.30019531 C30.6914062,9.44003906 31.2982422,9.0921875 31.4591797,8.54804688 C32.4970703,5.25097656 35.5230469,3.03554688 38.9908203,3.03554688 C41.9070313,3.03554688 44.5748047,4.62597656 45.9658203,7.20507812 C46.1248047,7.47070313 46.3722656,7.659375 46.6632813,7.73945312 C46.9566406,7.81953125 47.29375,7.76191406 47.5740234,7.57734375 C48.6085938,6.86386719 49.8214844,6.48808594 51.08125,6.48808594 C54.3324219,6.48808594 57.0320313,9.02148437 57.2285156,12.2662109 C57.253125,12.5669922 57.3949219,12.8453125 57.6285156,13.0492187 C57.8140625,13.2113281 58.0712891,13.30625 58.3335938,13.30625 C58.3974609,13.30625 58.4626953,13.2998047 58.4871094,13.2957031 C58.6224609,13.2818359 58.7728516,13.2679687 58.9349609,13.2679687 C60.4699219,13.2679687 61.7210938,14.5181641 61.7210938,16.0529297 C61.7210938,17.5890625 60.4708984,18.8390625 58.9349609,18.8390625 L53.3808594,18.8390625 C52.7644531,18.8390625 52.2628906,19.3416016 52.2628906,19.9580078 C52.2628906,20.5744141 52.7640625,21.0769531 53.3808594,21.0769531 L58.9349609,21.0769531 C60.01875,21.0769531 61.0191406,20.728125 61.8384766,20.1435547 C62.0197266,20.3441406 62.2767578,20.4720703 62.5669922,20.4720703 L68.9519531,20.4720703 C69.49375,20.4720703 69.934375,20.0326172 69.934375,19.4908203 C69.934375,18.9478516 69.49375,18.5083984 68.9519531,18.5083984 L63.3082031,18.5083984 C63.7103516,17.7904297 63.940625,16.9648437 63.940625,16.0847656 C63.940625,13.4607422 61.9169922,11.3007812 59.3101563,11.0810547 C58.5517578,7.17714844 55.0796875,4.28320312 51.0660156,4.28320312 C49.7402344,4.28320312 48.4484375,4.58710937 47.3005859,5.16523437 C45.40625,2.43457031 42.3330078,0.817578125 38.9902344,0.817578125 C34.8589844,0.817578125 31.2388672,3.22167969 29.6558594,6.97753906 C29.4318359,6.95625 29.2238281,6.94550781 29.0169922,6.94550781 C25.1214844,6.94550781 21.9513672,10.115625 21.9513672,14.0121094 C21.9513672,17.9044922 25.1214844,21.0746094 29.0169922,21.0746094 L29.0175781,21.0751953 Z" id="路径"></path>
            <path d="M4.24550781,25.8869141 L36.1453125,25.8869141 C36.6914063,25.8869141 37.1265625,25.4699219 37.1585938,24.890625 C37.1585938,24.3306641 36.7203125,23.8933594 36.1613281,23.8933594 L4.24667969,23.8933594 C3.68671875,23.8933594 3.24941244,24.3316406 3.24941244,24.890625 C3.2484375,25.4486328 3.68769531,25.8869141 4.24570313,25.8869141 L4.24550781,25.8869141 Z" id="路径"></path>
            <path d="M50.3285156,29.8988281 C50.35625,29.9382813 50.3828125,29.9777344 50.4169922,30.0130859 C50.6025391,30.209375 50.8662109,30.3214844 51.1423828,30.3214844 L51.4316406,30.3214844 C51.9734375,30.3214844 52.4140625,29.8808594 52.4140625,29.3390625 C52.4140625,28.7972656 51.9734375,28.3566406 51.4316406,28.3566406 L51.1414062,28.3566406 C50.8052734,28.3566406 50.5068359,28.5283203 50.3296875,28.7802734 C50.1515625,28.5251953 49.8572266,28.3566406 49.5242187,28.3566406 L21.6339844,28.3566406 C21.0921875,28.3566406 20.6515625,28.7972656 20.6515625,29.3390625 C20.6515625,29.8808594 21.0921875,30.3214844 21.6339844,30.3214844 L49.5232422,30.3214844 C49.8558594,30.3214844 50.1505859,30.1539063 50.3287109,29.8990234 L50.3285156,29.8988281 Z" id="路径"></path>
            <path d="M139.16582,9.78242188 C139.344922,9.85292969 140.933398,10.5386719 141.884766,13.0037109 C142.067188,13.4634766 142.461914,13.8046875 142.956836,13.9230469 C143.065625,13.9443359 143.176563,13.9636719 143.286328,13.9636719 C143.667188,13.9636719 144.013867,13.8324219 144.271875,13.596875 C145.143359,12.8447266 146.142773,12.4642578 147.242578,12.4642578 C147.412109,12.4642578 147.588281,12.4738281 147.792969,12.4951172 L147.856836,12.4972656 C148.344336,12.4972656 148.760352,12.1345703 148.822266,11.6248047 C148.854297,11.1105469 148.486133,10.659375 147.975391,10.5964844 C147.723633,10.5666016 147.46875,10.5527344 147.221289,10.5527344 C145.499609,10.5527344 144.220703,11.234375 143.448633,11.8101563 C142.086523,8.79257813 139.900977,8.01933594 139.801758,7.98515625 C139.313281,7.82402344 138.754297,8.10136719 138.593164,8.58144531 C138.513086,8.8203125 138.532422,9.08710937 138.646484,9.31640625 C138.757227,9.54238281 138.950391,9.70996094 139.16582,9.78242187 L139.16582,9.78242188 Z" id="路径"></path>
            <path d="M143.85918,5.94023438 C144.021289,6.003125 145.483789,6.62597656 146.371289,8.92148438 C146.555859,9.33847656 146.927148,9.65546875 147.364453,9.76933594 C147.482813,9.80019531 147.599023,9.81621094 147.702539,9.81621094 C148.055664,9.81621094 148.402344,9.68398438 148.645508,9.46210938 C149.434961,8.77285156 150.353125,8.42519531 151.369727,8.42519531 C151.526563,8.42519531 151.689648,8.43378906 151.877344,8.45390625 L151.942383,8.45605469 C152.419336,8.45605469 152.810742,8.11582031 152.875781,7.61445313 C152.912109,7.11191406 152.566406,6.68320313 152.056641,6.61386719 C151.831641,6.58925781 151.602344,6.57753906 151.379297,6.57753906 C149.811328,6.57753906 148.619922,7.18554688 147.864648,7.72636719 C146.587695,4.92734375 144.562109,4.22988281 144.45332,4.19375 C143.989453,4.06152344 143.47832,4.32167969 143.315234,4.771875 C143.232031,5.00429688 143.244727,5.25390625 143.348438,5.47480469 C143.451953,5.69355469 143.637695,5.85976563 143.85918,5.93984375 L143.85918,5.94023438 Z" id="路径"></path>
        </g>
    </g>
</svg>