<?xml version="1.0" encoding="UTF-8"?>
<svg width="1367px" height="469px" viewBox="0 0 1367 469" version="1.1" xmlns="http://www.w3.org/2000/svg" xmlns:xlink="http://www.w3.org/1999/xlink">
    <!-- Generator: Sketch 57 (83077) - https://sketch.com -->
    <title>编组</title>
    <desc>Created with Sketch.</desc>
    <g id="页面-1" stroke="none" stroke-width="1" fill="none" fill-rule="evenodd">
        <g id="编组" fill-rule="nonzero">
            <g id="Network-Equipment@3x" fill="#333333">
                <path d="M463.541667,166.666667 L46.875,166.666667 C20.9866524,166.666667 0,187.653319 0,213.541667 L0,255.208333 C0,281.096681 20.9866524,302.083333 46.875,302.083333 L463.541667,302.083333 C489.430014,302.083333 510.416667,281.096681 510.416667,255.208333 L510.416667,213.541667 C510.416667,187.653319 489.430014,166.666667 463.541667,166.666667 Z M46.875,177.083333 L463.541667,177.083333 C483.666667,177.083333 500,193.416667 500,213.541667 L500,255.208333 C500,275.343715 483.677048,291.666667 463.541667,291.666667 L46.875,291.666667 C26.7396186,291.666667 10.4166665,275.343715 10.4166665,255.208333 L10.4166665,213.541667 C10.4166665,193.416667 26.75,177.083333 46.875,177.083333 Z M463.541667,0 L46.875,0 C20.9866524,0 0,20.9866524 0,46.875 L0,88.5416665 C0,114.430014 20.9866524,135.416667 46.875,135.416667 L463.541667,135.416667 C489.430014,135.416667 510.416667,114.430014 510.416667,88.5416665 L510.416667,46.875 C510.416667,20.9866524 489.430014,0 463.541667,0 Z M46.875,10.4166665 L463.541667,10.4166665 C483.666667,10.4166665 500,26.75 500,46.875 L500,88.5416665 C500,108.677048 483.677048,125 463.541667,125 L46.875,125 C26.7396184,125 10.4166665,108.677048 10.4166665,88.5416665 L10.4166665,46.875 C10.4166665,26.75 26.75,10.4166665 46.875,10.4166665 Z M463.541667,333.333333 L46.875,333.333333 C20.9866524,333.333333 0,354.319986 0,380.208333 L0,421.875 C0,447.763348 20.9866524,468.75 46.875,468.75 L463.541667,468.75 C489.430014,468.75 510.416667,447.763348 510.416667,421.875 L510.416667,380.208333 C510.416667,354.319986 489.430014,333.333333 463.541667,333.333333 Z M46.875,343.75 L463.541667,343.75 C483.666667,343.75 500,360.083333 500,380.208333 L500,421.875 C500,442.010382 483.677048,458.333333 463.541667,458.333333 L46.875,458.333333 C37.2056488,458.333333 27.932329,454.492199 21.0950652,447.654935 C14.2578013,440.817671 10.4166665,431.544351 10.4166665,421.875 L10.4166665,380.208333 C10.4166665,360.083333 26.75,343.75 46.875,343.75 L46.875,343.75 Z" id="形状"></path>
                <path d="M390.625,234.375 L453.125,234.375 C460.069444,234.375 463.541667,237.847222 463.541667,244.791667 L463.541667,244.791667 C463.541667,251.736111 460.069444,255.208333 453.125,255.208333 L390.625,255.208333 C383.680556,255.208333 380.208333,251.736111 380.208333,244.791667 L380.208333,244.791667 C380.208333,237.847222 383.680556,234.375 390.625,234.375 Z" id="路径"></path>
                <path d="M57.2916665,67.7083335 L119.791667,67.7083335 C126.736111,67.7083335 130.208333,71.1805557 130.208333,78.125 L130.208333,78.125 C130.208333,85.0694443 126.736111,88.5416665 119.791667,88.5416665 L57.2916665,88.5416665 C50.3472222,88.5416665 46.875,85.0694443 46.875,78.125 L46.875,78.125 C46.875,71.1805557 50.3472222,67.7083335 57.2916665,67.7083335 Z" id="路径"></path>
                <path d="M57.2916665,401.041667 L119.791667,401.041667 C126.736111,401.041667 130.208333,404.513889 130.208333,411.458333 L130.208333,411.458333 C130.208333,418.402778 126.736111,421.875 119.791667,421.875 L57.2916665,421.875 C50.3472222,421.875 46.875,418.402778 46.875,411.458333 L46.875,411.458333 C46.875,404.513889 50.3472222,401.041667 57.2916665,401.041667 Z" id="路径"></path>
            </g>
            <g id="Network-Equipment@3x" transform="translate(856.000000, 0.000000)">
                <path d="M463.541667,166.666667 L46.875,166.666667 C20.9866524,166.666667 0,187.653319 0,213.541667 L0,255.208333 C0,281.096681 20.9866524,302.083333 46.875,302.083333 L463.541667,302.083333 C489.430014,302.083333 510.416667,281.096681 510.416667,255.208333 L510.416667,213.541667 C510.416667,187.653319 489.430014,166.666667 463.541667,166.666667 Z M46.875,177.083333 L463.541667,177.083333 C483.666667,177.083333 500,193.416667 500,213.541667 L500,255.208333 C500,275.343715 483.677048,291.666667 463.541667,291.666667 L46.875,291.666667 C26.7396186,291.666667 10.4166665,275.343715 10.4166665,255.208333 L10.4166665,213.541667 C10.4166665,193.416667 26.75,177.083333 46.875,177.083333 Z M463.541667,0 L46.875,0 C20.9866524,0 0,20.9866524 0,46.875 L0,88.5416665 C0,114.430014 20.9866524,135.416667 46.875,135.416667 L463.541667,135.416667 C489.430014,135.416667 510.416667,114.430014 510.416667,88.5416665 L510.416667,46.875 C510.416667,20.9866524 489.430014,0 463.541667,0 Z M46.875,10.4166665 L463.541667,10.4166665 C483.666667,10.4166665 500,26.75 500,46.875 L500,88.5416665 C500,108.677048 483.677048,125 463.541667,125 L46.875,125 C26.7396184,125 10.4166665,108.677048 10.4166665,88.5416665 L10.4166665,46.875 C10.4166665,26.75 26.75,10.4166665 46.875,10.4166665 Z M463.541667,333.333333 L46.875,333.333333 C20.9866524,333.333333 0,354.319986 0,380.208333 L0,421.875 C0,447.763348 20.9866524,468.75 46.875,468.75 L463.541667,468.75 C489.430014,468.75 510.416667,447.763348 510.416667,421.875 L510.416667,380.208333 C510.416667,354.319986 489.430014,333.333333 463.541667,333.333333 Z M46.875,343.75 L463.541667,343.75 C483.666667,343.75 500,360.083333 500,380.208333 L500,421.875 C500,442.010382 483.677048,458.333333 463.541667,458.333333 L46.875,458.333333 C37.2056488,458.333333 27.932329,454.492199 21.0950652,447.654935 C14.2578013,440.817671 10.4166665,431.544351 10.4166665,421.875 L10.4166665,380.208333 C10.4166665,360.083333 26.75,343.75 46.875,343.75 L46.875,343.75 Z" id="形状" fill="#333333"></path>
                <path d="M390.625,234.375 L453.125,234.375 C460.069444,234.375 463.541667,237.847222 463.541667,244.791667 L463.541667,244.791667 C463.541667,251.736111 460.069444,255.208333 453.125,255.208333 L390.625,255.208333 C383.680556,255.208333 380.208333,251.736111 380.208333,244.791667 L380.208333,244.791667 C380.208333,237.847222 383.680556,234.375 390.625,234.375 Z" id="路径" fill="#1BC300"></path>
                <path d="M57.2916665,67.7083335 L119.791667,67.7083335 C126.736111,67.7083335 130.208333,71.1805557 130.208333,78.125 L130.208333,78.125 C130.208333,85.0694443 126.736111,88.5416665 119.791667,88.5416665 L57.2916665,88.5416665 C50.3472222,88.5416665 46.875,85.0694443 46.875,78.125 L46.875,78.125 C46.875,71.1805557 50.3472222,67.7083335 57.2916665,67.7083335 Z" id="路径" fill="#333333"></path>
                <path d="M57.2916665,401.041667 L119.791667,401.041667 C126.736111,401.041667 130.208333,404.513889 130.208333,411.458333 L130.208333,411.458333 C130.208333,418.402778 126.736111,421.875 119.791667,421.875 L57.2916665,421.875 C50.3472222,421.875 46.875,418.402778 46.875,411.458333 L46.875,411.458333 C46.875,404.513889 50.3472222,401.041667 57.2916665,401.041667 Z" id="路径" fill="#333333"></path>
            </g>
            <g id="声波传输" transform="translate(611.000000, 167.000000)" fill="#333333">
                <path d="M136.636718,82.9386359 C132.219455,82.9386359 128.636718,79.4769258 128.636718,75.2084686 L128.636718,59.7463951 C128.636718,55.4761992 132.21772,52.0162277 136.636718,52.0162277 C141.055716,52.0162277 144.636718,55.4779379 144.636718,59.7463951 L144.636718,75.2084686 C144.638452,79.4769258 141.055716,82.9386359 136.636718,82.9386359 Z M104.638453,103.554154 C100.219455,103.554154 96.6384529,100.092444 96.6384529,95.8239869 L96.6384529,39.1308768 C96.6384529,34.8606808 100.219455,31.4007094 104.638453,31.4007094 C109.057451,31.4007094 112.638453,34.8624195 112.638453,39.1308768 L112.638453,95.8239869 C112.636718,100.092444 109.057451,103.554154 104.638453,103.554154 Z M72.6349831,134.476562 C66.9806783,134.476562 62.396857,131.014852 62.396857,126.744656 L62.396857,8.20672988 C62.396857,3.93653395 66.9806783,0.4765625 72.6349831,0.4765625 C78.291023,0.4765625 82.8765792,3.93653395 82.8765792,8.20672988 L82.8765792,126.744656 C82.8765792,131.016591 78.291023,134.476562 72.6349831,134.476562 Z M40.6367185,88.0920809 C36.2194554,88.0920809 32.6367185,84.6303707 32.6367185,80.3619135 L32.6367185,54.5912115 C32.6367185,50.3210156 36.2194554,46.8610441 40.6367185,46.8610441 C45.0557164,46.8610441 48.6367185,50.3227543 48.6367185,54.5912115 L48.6367185,80.3601748 C48.6349833,84.6303707 45.0557164,88.0920809 40.6367185,88.0920809 Z M8.63671875,88.0920809 C4.21772067,88.0920809 0.63671875,84.6303707 0.63671875,80.3619135 L0.63671875,54.5912115 C0.63671875,50.3210156 4.21772067,46.8610441 8.63671875,46.8610441 C13.0557167,46.8610441 16.6367188,50.3227543 16.6367188,54.5912115 L16.6367188,80.3601748 C16.6367188,84.6303707 13.0557167,88.0920809 8.63671875,88.0920809 Z" id="形状"></path>
            </g>
        </g>
    </g>
</svg>